<svg version="1.2" xmlns="http://www.w3.org/2000/svg" viewBox="0 0 24 24" width="24" height="24"><style>.a{fill:none;stroke:#db8b75;stroke-linecap:round;stroke-linejoin:round;stroke-width:.4}</style><path fill-rule="evenodd" class="a" d="m8 10.2h4.1v-5.2h-3.4l-0.7 5.2z"/><path class="a" d="m8.7 5h-2.8q-0.1 0-0.3 0.1-0.1 0-0.2 0.1-0.1 0.1-0.2 0.2-0.1 0.1-0.1 0.3l-1.1 4.5h4"/><path class="a" d="m12.1 10.2c0 0.6-0.2 1.1-0.6 1.5-0.4 0.3-0.9 0.6-1.4 0.6-0.6 0-1.1-0.3-1.5-0.6-0.4-0.4-0.6-0.9-0.6-1.5"/><path class="a" d="m8 10.2c0 0.6-0.2 1.1-0.6 1.5-0.4 0.3-0.9 0.6-1.4 0.6-0.5 0-1.1-0.3-1.4-0.6-0.4-0.4-0.6-0.9-0.6-1.5"/><path fill-rule="evenodd" class="a" d="m16.1 10.2h-4v-5.2h3.4l0.6 5.2z"/><path class="a" d="m15.5 5h2.8q0.1 0 0.2 0.1 0.2 0 0.3 0.1 0.1 0.1 0.2 0.2 0 0.1 0.1 0.3l1.1 4.5h-4.1"/><path class="a" d="m12.1 10.2c0 0.6 0.2 1.1 0.6 1.5 0.4 0.3 0.9 0.6 1.4 0.6 0.6 0 1.1-0.3 1.5-0.6 0.3-0.4 0.5-0.9 0.5-1.5"/><path class="a" d="m16.1 10.2c0 0.6 0.3 1.1 0.6 1.5 0.4 0.3 0.9 0.6 1.5 0.6 0.5 0 1-0.3 1.4-0.6 0.4-0.4 0.6-0.9 0.6-1.5"/><path class="a" d="m5.1 12.1v6.2q0 0.2 0.1 0.3 0.1 0.2 0.2 0.3 0.1 0.1 0.2 0.2 0.2 0 0.4 0h12.2q0.2 0 0.3 0 0.2-0.1 0.3-0.2 0.1-0.1 0.2-0.3 0-0.1 0-0.3v-6.2"/><path class="a" d="m16 16.1h1.7q0 0.3-0.1 0.6-0.1 0.3-0.4 0.6-0.2 0.2-0.5 0.3-0.3 0.2-0.6 0.2h-0.1c-0.4 0-0.8-0.2-1.2-0.5-0.3-0.3-0.5-0.8-0.5-1.2 0-0.5 0.2-0.9 0.5-1.2 0.4-0.3 0.8-0.5 1.2-0.5q0.2 0 0.3 0 0.1 0 0.2 0 0.1 0.1 0.2 0.1 0.1 0 0.2 0.1"/></svg>